<?xml version="1.0" encoding="UTF-8" standalone="no"?>
<svg
   xmlns:dc="http://purl.org/dc/elements/1.1/"
   xmlns:cc="http://creativecommons.org/ns#"
   xmlns:rdf="http://www.w3.org/1999/02/22-rdf-syntax-ns#"
   xmlns:svg="http://www.w3.org/2000/svg"
   xmlns="http://www.w3.org/2000/svg"
   xmlns:sodipodi="http://sodipodi.sourceforge.net/DTD/sodipodi-0.dtd"
   xmlns:inkscape="http://www.inkscape.org/namespaces/inkscape"
   version="1.1"
   id="svg2"
   xml:space="preserve"
   width="666.66669"
   height="511.81332"
   viewBox="0 0 666.66669 511.81332"
   sodipodi:docname="5191078.eps"><metadata
     id="metadata8"><rdf:RDF><cc:Work
         rdf:about=""><dc:format>image/svg+xml</dc:format><dc:type
           rdf:resource="http://purl.org/dc/dcmitype/StillImage" /></cc:Work></rdf:RDF></metadata><defs
     id="defs6" /><sodipodi:namedview
     pagecolor="#ffffff"
     bordercolor="#666666"
     borderopacity="1"
     objecttolerance="10"
     gridtolerance="10"
     guidetolerance="10"
     inkscape:pageopacity="0"
     inkscape:pageshadow="2"
     inkscape:window-width="640"
     inkscape:window-height="480"
     id="namedview4" /><g
     id="g10"
     inkscape:groupmode="layer"
     inkscape:label="ink_ext_XXXXXX"
     transform="matrix(1.3333333,0,0,-1.3333333,0,511.81333)"><g
       id="g12"
       transform="scale(0.1)"><path
         d="m 2500,226.398 c 1070.82,0 1938.9,-50.679 1938.9,-113.199 C 4438.9,50.6797 3570.82,-0.0117188 2500,-0.0117188 1429.17,-0.0117188 561.105,50.6797 561.105,113.199 c 0,62.52 868.065,113.199 1938.895,113.199"
         style="fill:#f8f8f9;fill-opacity:1;fill-rule:nonzero;stroke:none"
         id="path14" /><path
         d="m 453.047,3836.56 c -30.117,-0.06 -54.492,-24.49 -54.492,-54.6 v -2714.3 c 0,-30.12 24.375,-54.54 54.492,-54.6 H 2383.95 c 30.13,0.06 54.55,24.46 54.6,54.6 v 2714.3 c -0.05,30.13 -24.47,54.54 -54.6,54.6 H 453.047 m 1930.903,-2826 H 453.047 c -31.492,0.06 -56.992,25.61 -56.992,57.1 v 2714.3 c 0.273,31.3 25.691,56.55 56.992,56.6 H 2383.95 c 31.54,0 57.1,-25.56 57.1,-57.1 v -2713.8 c 0,-31.53 -25.56,-57.1 -57.1,-57.1"
         style="fill:#e9e9e8;fill-opacity:1;fill-rule:nonzero;stroke:none"
         id="path16" /><path
         d="m 2616.05,3836.56 c -30.13,-0.06 -54.55,-24.47 -54.6,-54.6 v -2714.3 c 0.05,-30.14 24.47,-54.54 54.6,-54.6 h 1931 c 30.13,0.06 54.54,24.46 54.6,54.6 v 2714.3 c -0.06,30.13 -24.47,54.54 -54.6,54.6 h -1931 m 1931,-2826 h -1931 c -31.51,0.06 -57.05,25.59 -57.1,57.1 v 2714.3 c 0.33,31.32 25.78,56.55 57.1,56.6 h 1931 c 31.26,-0.11 56.63,-25.34 56.9,-56.6 v -2714.3 c 0,-31.45 -25.44,-56.99 -56.9,-57.1"
         style="fill:#e9e9e8;fill-opacity:1;fill-rule:nonzero;stroke:none"
         id="path18" /><path
         d="m 447.305,503.762 h 412.097 v -2.5 H 447.305 v 2.5"
         style="fill:#e3e3e2;fill-opacity:1;fill-rule:nonzero;stroke:none"
         id="path20" /><path
         d="m 1286.1,523.762 h 413.3 v -2.5 h -413.3 v 2.5"
         style="fill:#e3e3e2;fill-opacity:1;fill-rule:nonzero;stroke:none"
         id="path22" /><path
         d="m 2137.2,523.762 h 100 v -2.5 h -100 v 2.5"
         style="fill:#e3e3e2;fill-opacity:1;fill-rule:nonzero;stroke:none"
         id="path24" /><path
         d="M 775.195,438.359 H 1237.7 v -2.5 H 775.195 v 2.5"
         style="fill:#e3e3e2;fill-opacity:1;fill-rule:nonzero;stroke:none"
         id="path26" /><path
         d="m 2621.4,505.059 h 216 v -2.5 h -216 v 2.5"
         style="fill:#e3e3e2;fill-opacity:1;fill-rule:nonzero;stroke:none"
         id="path28" /><path
         d="m 2926.4,502.559 h 279.301 v 2.5 H 2926.4 Z"
         style="fill:#e3e3e2;fill-opacity:1;fill-rule:nonzero;stroke:none"
         id="path30" /><path
         d="m 3928.3,462.77 h 624.4 v -2.5 h -624.4 v 2.5"
         style="fill:#e3e3e2;fill-opacity:1;fill-rule:nonzero;stroke:none"
         id="path32" /><path
         d="m 0,599.379 h 5000 v 2.5 H 0 Z"
         style="fill:#eeeeee;fill-opacity:1;fill-rule:nonzero;stroke:none"
         id="path34" /><path
         d="m 3273.42,3241.58 h -274.91 c -10.17,0 -19.34,3.22 -26.57,8.81 -11.27,8.38 -17.99,22.26 -16.9,37.93 l 24.92,342.74 c 1.81,25.82 24.18,46.73 50,46.73 h 274.92 c 25.82,0 45.28,-20.91 43.47,-46.73 l -24.93,-342.74 c -0.83,-11.94 -5.99,-22.78 -13.93,-30.91 -9.15,-9.73 -22.1,-15.83 -36.07,-15.83"
         style="fill:#eaeae8;fill-opacity:1;fill-rule:nonzero;stroke:none"
         id="path36" /><path
         d="m 3229.11,3475.89 c -3.53,-50.56 -40.09,-91.54 -81.65,-91.54 -41.55,0 -72.37,40.98 -68.84,91.54 3.54,50.56 40.09,91.54 81.65,91.54 41.56,0 72.38,-40.98 68.84,-91.54"
         style="fill:#ffffff;fill-opacity:1;fill-rule:nonzero;stroke:none"
         id="path38" /><path
         d="m 3263.77,3265.2 h -251.59 c -15.95,0 -26.99,7.65 -27.39,18.39 -0.59,15.55 81,83.05 158.4,77.2 h 0.84 0.93 c 47.42,-0.2 92.07,-20.25 129.59,-49.91 37.33,-29.51 2,-45.68 -10.78,-45.68"
         style="fill:#ffffff;fill-opacity:1;fill-rule:nonzero;stroke:none"
         id="path40" /><path
         d="m 1918.46,3396.73 c -25.08,-0.31 -43.8,-20.99 -41.73,-46.09 2.07,-25.1 24.15,-45.26 49.23,-44.95 25.08,0.32 43.81,20.99 41.74,46.09 -2.07,25.1 -24.16,45.27 -49.24,44.95 z m 11.75,-142.67 c -53.51,-0.66 -100.65,42.37 -105.06,95.94 -4.42,53.57 35.53,97.7 89.06,98.36 53.52,0.67 100.65,-42.37 105.07,-95.94 4.41,-53.57 -35.54,-97.69 -89.07,-98.36"
         style="fill:#e3e3e2;fill-opacity:1;fill-rule:nonzero;stroke:none"
         id="path42" /><path
         d="m 1935.02,3404.22 -36.85,-0.45 -19.54,237.16 36.85,0.46 19.54,-237.17"
         style="fill:#e3e3e2;fill-opacity:1;fill-rule:nonzero;stroke:none"
         id="path44" /><path
         d="m 1950.39,3630.75 -69.17,-0.86 -3.05,36.88 69.17,0.86 3.05,-36.88"
         style="fill:#e3e3e2;fill-opacity:1;fill-rule:nonzero;stroke:none"
         id="path46" /><path
         d="m 1954.35,3583.36 -65.04,-0.81 -3.04,36.88 65.04,0.81 3.04,-36.88"
         style="fill:#e3e3e2;fill-opacity:1;fill-rule:nonzero;stroke:none"
         id="path48" /><path
         d="m 1959.96,3516.52 -56.77,-0.7 -3.03,36.87 56.76,0.71 3.04,-36.88"
         style="fill:#e3e3e2;fill-opacity:1;fill-rule:nonzero;stroke:none"
         id="path50" /><path
         d="m 793.086,1238.18 c 0.215,-3 0.625,-6 1.125,-8.9 3.348,-19.3 13.367,-36.7 27.273,-49.7 16.043,-15 37.403,-24.3 60.301,-24.3 h 844.905 c 42.79,0 75.73,32.4 77.22,74 0.09,2.9 0.08,5.9 -0.12,8.9 -1.59,22.8 -12.35,43.6 -28.39,58.49 -16.05,15 -37.4,24.31 -60.3,24.31 H 870.195 c -45.8,0 -80.3,-37.1 -77.109,-82.8"
         style="fill:#f4f4f4;fill-opacity:1;fill-rule:nonzero;stroke:none"
         id="path52" /><path
         d="m 1803.88,1229.29 c -0.05,-2.69 -0.3,-5.4 -0.75,-8 -2.21,21.61 -12.77,41.2 -28.12,55.4 -16.04,15 -37.37,24.3 -60.27,24.3 l -898.529,-1.4 c 13.738,13.31 32.676,21.4 53.977,21.4 h 844.902 c 22.9,0 44.24,-9.3 60.27,-24.3 16.04,-14.9 26.88,-35.7 28.48,-58.49 0.14,-3.01 0.19,-6.01 0.04,-8.91"
         style="fill:#e3e3e2;fill-opacity:1;fill-rule:nonzero;stroke:none"
         id="path54" /><path
         d="m 1659.31,1281.02 2.82,-40.41 37.87,14.03 8.59,-19.96 -38.68,-12.75 27.01,-33.91 -17.45,-12.77 -26.3,35.24 -21.01,-35.24 -18.7,12.77 21.91,33.91 -40.11,12.75 5.78,19.84 40.19,-13.52 -2.79,40.02 h 20.87"
         style="fill:#ffffff;fill-opacity:1;fill-rule:nonzero;stroke:none"
         id="path56" /><path
         d="m 1428.23,1281.02 2.82,-40.41 37.89,14.03 8.59,-19.96 -38.69,-12.75 27.02,-33.91 -17.46,-12.77 -26.3,35.24 -21.02,-35.24 -18.7,12.77 21.92,33.91 -40.11,12.75 5.78,19.84 40.2,-13.52 -2.81,40.02 h 20.87"
         style="fill:#ffffff;fill-opacity:1;fill-rule:nonzero;stroke:none"
         id="path58" /><path
         d="m 1197.16,1281.02 2.83,-40.41 37.87,14.03 8.6,-19.96 -38.69,-12.75 27.02,-33.91 -17.47,-12.77 -26.29,35.24 -21.01,-35.24 -18.7,12.77 21.91,33.91 -40.11,12.75 5.78,19.84 40.19,-13.52 -2.8,40.02 h 20.87"
         style="fill:#ffffff;fill-opacity:1;fill-rule:nonzero;stroke:none"
         id="path60" /><path
         d="m 966.086,1281.02 2.832,-40.41 37.872,14.03 8.59,-19.96 -38.681,-12.75 27.011,-33.91 -17.448,-12.77 -26.301,35.24 -21.016,-35.24 -18.703,12.77 21.914,33.91 -40.105,12.75 5.769,19.84 40.2,-13.52 -2.793,40.02 h 20.859"
         style="fill:#ffffff;fill-opacity:1;fill-rule:nonzero;stroke:none"
         id="path62" /><path
         d="m 1527.34,1350.18 h -39.37 l 0.17,10 h 39.38 l -0.18,-10"
         style="fill:#e3e3e2;fill-opacity:1;fill-rule:nonzero;stroke:none"
         id="path64" /><path
         d="m 1696.73,1350.18 h -128.54 l 0.18,10 h 128.53 l -0.17,-10"
         style="fill:#e3e3e2;fill-opacity:1;fill-rule:nonzero;stroke:none"
         id="path66" /><path
         d="m 2853.18,1155.28 -159.33,245.31 82.57,47.97 94.59,-152.52 500.86,392.6 c 1.06,0.83 2.17,1.18 3.23,1.18 4.07,0 7.34,-5.29 3.67,-8.96 l -525.59,-525.58"
         style="fill:#eaeae8;fill-opacity:1;fill-rule:nonzero;stroke:none"
         id="path68" /><path
         d="m 2348.12,1734.81 h -126.95 l 18.31,68.47 126.78,0.11 -18.14,-68.58 m 237.21,1362.02 13.23,49.48 h 122.79 l -13.06,-49.37 -122.96,-0.11"
         style="fill:#ffffff;fill-opacity:1;fill-rule:nonzero;stroke:none"
         id="path70" /><path
         d="m 2668.92,1734.81 h -107.47 v 68.75 l 125.67,0.11 -18.2,-68.86 m -109.97,0 h -117.9 v 68.64 l 117.9,0.11 v -68.75 m -120.4,0 h -21.46 l 18.35,68.64 h 3.11 v -68.64"
         style="fill:#ffffff;fill-opacity:1;fill-rule:nonzero;stroke:none"
         id="path72" /><path
         d="m 2438.55,1734.81 h 2.5 v 68.6406 h -2.5 z"
         style="fill:#ececeb;fill-opacity:1;fill-rule:nonzero;stroke:none"
         id="path74" /><path
         d="m 2558.95,1734.81 h 2.5 v 68.75 h -2.5 z"
         style="fill:#ececeb;fill-opacity:1;fill-rule:nonzero;stroke:none"
         id="path76" /><path
         d="m 2781.31,3097 13.18,49.31 h 247.65 l -12.98,-49.09 -247.85,-0.22"
         style="fill:#ffffff;fill-opacity:1;fill-rule:nonzero;stroke:none"
         id="path78" /><path
         d="m 4153.11,1872.72 79.6,1133.03 c 2.64,37.44 -25.73,67.76 -63.35,67.73 l -1977.34,-1.72 c -37.62,-0.03 -70.24,-30.4 -72.88,-67.84 l -79.61,-1133.04 c -2.63,-37.43 25.73,-67.75 63.35,-67.72 l 1977.34,1.72 c 37.62,0.03 70.26,30.41 72.89,67.84"
         style="fill:#1d2a30;fill-opacity:1;fill-rule:nonzero;stroke:none"
         id="path80" /><path
         d="m 4127.72,1897.43 79.62,1133.03 c 2.63,37.43 -25.73,67.76 -63.36,67.72 l -1977.33,-1.71 c -37.63,-0.04 -70.25,-30.4 -72.88,-67.84 l -79.62,-1133.04 c -2.63,-37.43 25.73,-67.75 63.36,-67.72 l 1977.34,1.72 c 37.62,0.02 70.25,30.41 72.87,67.84"
         style="fill:#4870c0;fill-opacity:1;fill-rule:nonzero;stroke:none"
         id="path82" /><path
         d="m 2346.4,1873.43 284.35,1178.01 h -125.12 l 1632.84,1.41 h 0.01 c 13.29,0 24.13,-11.56 23.2,-24.76 l -79.61,-1133.04 c -0.5,-7.12 -3.96,-11.72 -6.76,-14.35 -2.83,-2.63 -7.71,-5.77 -14.94,-5.79 l -1470.95,-1.27 116.8,483.86 c 0.66,-0.06 1.34,-0.09 2.02,-0.09 h 694.05 c 12.4,0 23.49,10 24.78,22.34 l 10.63,101.49 c 1.28,12.33 -7.72,22.33 -20.11,22.33 h -676.11 l 15.74,65.19 h 670.08 c 12.4,0 23.49,10 24.78,22.33 l 10.63,101.5 c 1.28,12.33 -7.72,22.33 -20.11,22.33 h -650.1 l 81.23,336.52 h -118.77 l -284.33,-1177.91 -124.23,-0.1 m -223.01,235.12 -48.75,0.38 0.01,0.14 c 15.83,-0.13 32.15,-0.26 48.78,-0.37 l -0.04,-0.15 m 137.95,571.51 c -28.22,5.06 -71.76,12.16 -111.99,15.84 -11.23,1.02 -22.28,1.72 -33.32,2.17 l 23.39,332.93 c 0.5,7.12 3.96,11.73 6.77,14.36 2.82,2.63 7.71,5.77 14.92,5.78 l 189.84,0.16 -89.61,-371.24"
         style="fill:#b4caec;fill-opacity:1;fill-rule:nonzero;stroke:none"
         id="path84" /><path
         d="m 3417.59,2503.57 h -694.05 c -12.4,0 -23.49,-10 -24.78,-22.33 l -10.63,-101.49 c -1.28,-12.34 7.72,-22.34 20.11,-22.34 h 694.05 c 12.4,0 23.49,10 24.78,22.34 l 10.63,101.49 c 1.28,12.33 -7.72,22.33 -20.11,22.33"
         style="fill:#ffffff;fill-opacity:1;fill-rule:nonzero;stroke:none"
         id="path86" /><path
         d="m 2806.08,2089.01 h -108.31 c -12.39,0 -23.48,-9.99 -24.77,-22.33 l -10.63,-101.49 c -1.29,-12.33 7.72,-22.33 20.11,-22.33 h 108.31 c 12.39,0 23.49,10 24.78,22.33 l 10.62,101.49 c 1.29,12.34 -7.71,22.33 -20.11,22.33"
         style="fill:#ffffff;fill-opacity:1;fill-rule:nonzero;stroke:none"
         id="path88" /><path
         d="m 2993.1,2089.01 h -108.31 c -12.4,0 -23.49,-9.99 -24.78,-22.33 l -10.63,-101.49 c -1.28,-12.33 7.72,-22.33 20.11,-22.33 h 108.31 c 12.4,0 23.49,10 24.78,22.33 l 10.61,101.49 c 1.3,12.34 -7.7,22.33 -20.09,22.33"
         style="fill:#ffffff;fill-opacity:1;fill-rule:nonzero;stroke:none"
         id="path90" /><path
         d="M 3180.11,2089.01 H 3071.8 c -12.41,0 -23.49,-9.99 -24.79,-22.33 l -10.61,-101.49 c -1.29,-12.33 7.7,-22.33 20.09,-22.33 h 108.31 c 12.4,0 23.49,10 24.79,22.33 l 10.62,101.49 c 1.28,12.34 -7.71,22.33 -20.1,22.33"
         style="fill:#ffffff;fill-opacity:1;fill-rule:nonzero;stroke:none"
         id="path92" /><path
         d="M 3367.11,2089.01 H 3258.8 c -12.39,0 -23.49,-9.99 -24.78,-22.33 l -10.61,-101.49 c -1.3,-12.33 7.7,-22.33 20.1,-22.33 h 108.31 c 12.39,0 23.48,10 24.77,22.33 l 10.63,101.49 c 1.29,12.34 -7.72,22.33 -20.11,22.33"
         style="fill:#ffffff;fill-opacity:1;fill-rule:nonzero;stroke:none"
         id="path94" /><path
         d="m 2810.59,2158.15 v -5 h 434.16 c 23.81,0.1 44.59,18.84 47.17,42.52 l 5.21,49.83 c 0.16,1.51 0.24,3.02 0.24,4.5 0.01,10.85 -4.2,20.69 -11.29,27.74 -7.07,7.06 -17.02,11.32 -28.16,11.31 h -434.16 c -23.8,-0.1 -44.59,-18.84 -47.17,-42.51 l -5.22,-49.83 c -0.15,-1.52 -0.23,-3.02 -0.23,-4.51 -0.01,-10.85 4.2,-20.69 11.29,-27.74 7.07,-7.06 17.02,-11.32 28.16,-11.31 v 5 5 c -8.62,0.01 -15.89,3.22 -21.11,8.4 -5.2,5.19 -8.33,12.37 -8.34,20.65 0,1.14 0.06,2.29 0.18,3.47 l 5.22,49.83 c 1.81,18.33 18.82,33.65 37.22,33.55 h 434.16 c 8.62,-0.01 15.89,-3.21 21.1,-8.39 5.2,-5.2 8.34,-12.38 8.35,-20.66 0,-1.13 -0.06,-2.29 -0.18,-3.46 l -5.22,-49.83 c -1.82,-18.34 -18.81,-33.66 -37.22,-33.56 h -434.16 v -5"
         style="fill:#4870c0;fill-opacity:1;fill-rule:nonzero;stroke:none"
         id="path96" /><path
         d="m 3442.6,2714.92 h -694.05 c -12.4,0 -23.49,-10 -24.78,-22.33 l -10.63,-101.5 c -1.28,-12.33 7.72,-22.33 20.11,-22.33 h 694.05 c 12.4,0 23.49,10 24.78,22.33 l 10.63,101.5 c 1.28,12.33 -7.72,22.33 -20.11,22.33"
         style="fill:#ffffff;fill-opacity:1;fill-rule:nonzero;stroke:none"
         id="path98" /><path
         d="m 2807.93,2430.49 c 1.43,13.66 -8.54,24.72 -22.26,24.72 -13.72,0 -25.99,-11.06 -27.43,-24.72 -1.42,-13.65 8.54,-24.72 22.26,-24.72 13.72,0 26,11.07 27.43,24.72"
         style="fill:#1d2a30;fill-opacity:1;fill-rule:nonzero;stroke:none"
         id="path100" /><path
         d="m 2884.27,2430.49 c 1.42,13.66 -8.54,24.72 -22.26,24.72 -13.72,0 -26,-11.06 -27.43,-24.72 -1.43,-13.65 8.54,-24.72 22.26,-24.72 13.72,0 25.99,11.07 27.43,24.72"
         style="fill:#1d2a30;fill-opacity:1;fill-rule:nonzero;stroke:none"
         id="path102" /><path
         d="m 2960.61,2430.49 c 1.42,13.66 -8.54,24.72 -22.26,24.72 -13.72,0 -26.01,-11.06 -27.43,-24.72 -1.44,-13.65 8.53,-24.72 22.25,-24.72 13.72,0 26,11.07 27.44,24.72"
         style="fill:#1d2a30;fill-opacity:1;fill-rule:nonzero;stroke:none"
         id="path104" /><path
         d="m 3036.93,2430.49 c 1.44,13.66 -8.53,24.72 -22.25,24.72 -13.72,0 -26,-11.06 -27.43,-24.72 -1.43,-13.65 8.54,-24.72 22.25,-24.72 13.72,0 26.01,11.07 27.43,24.72"
         style="fill:#1d2a30;fill-opacity:1;fill-rule:nonzero;stroke:none"
         id="path106" /><path
         d="m 3114.77,2430.49 c 1.43,13.66 -8.54,24.72 -22.26,24.72 -13.72,0 -26,-11.06 -27.43,-24.72 -1.43,-13.65 8.54,-24.72 22.25,-24.72 13.72,0 26.01,11.07 27.44,24.72"
         style="fill:#1d2a30;fill-opacity:1;fill-rule:nonzero;stroke:none"
         id="path108" /><path
         d="m 2832.94,2641.84 c 1.44,13.65 -8.54,24.72 -22.26,24.72 -13.72,0 -25.99,-11.07 -27.42,-24.72 -1.43,-13.65 8.54,-24.72 22.26,-24.72 13.71,0 25.99,11.07 27.42,24.72"
         style="fill:#1d2a30;fill-opacity:1;fill-rule:nonzero;stroke:none"
         id="path110" /><path
         d="m 2909.28,2641.84 c 1.42,13.65 -8.54,24.72 -22.26,24.72 -13.72,0 -25.99,-11.07 -27.43,-24.72 -1.43,-13.65 8.54,-24.72 22.26,-24.72 13.72,0 26,11.07 27.43,24.72"
         style="fill:#1d2a30;fill-opacity:1;fill-rule:nonzero;stroke:none"
         id="path112" /><path
         d="m 2985.62,2641.84 c 1.42,13.65 -8.54,24.72 -22.26,24.72 -13.72,0 -26.01,-11.07 -27.43,-24.72 -1.43,-13.65 8.53,-24.72 22.25,-24.72 13.72,0 26,11.07 27.44,24.72"
         style="fill:#1d2a30;fill-opacity:1;fill-rule:nonzero;stroke:none"
         id="path114" /><path
         d="m 3061.94,2641.84 c 1.44,13.65 -8.53,24.72 -22.24,24.72 -13.72,0 -26.01,-11.07 -27.43,-24.72 -1.44,-13.65 8.53,-24.72 22.25,-24.72 13.72,0 26,11.07 27.42,24.72"
         style="fill:#1d2a30;fill-opacity:1;fill-rule:nonzero;stroke:none"
         id="path116" /><path
         d="m 3138.28,2641.84 c 1.44,13.65 -8.53,24.72 -22.25,24.72 -13.73,0 -26,-11.07 -27.43,-24.72 -1.43,-13.65 8.53,-24.72 22.25,-24.72 13.72,0 26.01,11.07 27.43,24.72"
         style="fill:#1d2a30;fill-opacity:1;fill-rule:nonzero;stroke:none"
         id="path118" /><path
         d="m 3214.62,2641.84 c 1.42,13.65 -8.54,24.72 -22.26,24.72 -13.72,0 -25.99,-11.07 -27.43,-24.72 -1.42,-13.65 8.54,-24.72 22.26,-24.72 13.72,0 26,11.07 27.43,24.72"
         style="fill:#1d2a30;fill-opacity:1;fill-rule:nonzero;stroke:none"
         id="path120" /><path
         d="m 3149.78,2938.75 -5.41,-51.26 c -0.49,-4.62 -4.64,-8.36 -9.29,-8.36 -4.64,0 -8.01,3.74 -7.52,8.36 l 5.41,51.26 c 1.74,16.55 -10.37,30.03 -27,30.03 h -18.43 c -16.63,0 -31.58,-13.48 -33.33,-30.03 l -4.69,-47.61 h -16.81 l 4.68,47.61 c 2.73,25.78 26.02,46.76 51.92,46.76 h 18.42 c 25.9,0 44.77,-20.98 42.05,-46.76"
         style="fill:#4870c0;fill-opacity:1;fill-rule:nonzero;stroke:none"
         id="path122" /><path
         d="m 3150.13,2889.36 -10.55,-99.86 c -0.66,-6.32 -6.34,-11.43 -12.69,-11.43 h -100.35 c -6.34,0 -10.94,5.11 -10.28,11.43 l 10.54,99.86 c 0.43,4.09 2.97,7.68 6.4,9.69 1.89,1.11 4.05,1.75 6.29,1.75 h 100.35 c 2.18,0 4.14,-0.6 5.76,-1.64 3.12,-2 4.96,-5.64 4.53,-9.8"
         style="fill:#4870c0;fill-opacity:1;fill-rule:nonzero;stroke:none"
         id="path124" /><path
         d="m 3933.06,3109.79 -244.37,-1.46 c -2.76,-0.02 -4.99,-2.27 -4.97,-5.03 0.02,-2.76 2.27,-4.99 5.03,-4.97 l 244.37,1.46 c 2.76,0.01 4.98,2.26 4.97,5.03 -0.02,2.75 -2.27,4.98 -5.03,4.97"
         style="fill:#1d2a30;fill-opacity:1;fill-rule:nonzero;stroke:none"
         id="path126" /><path
         d="m 4066.27,3110.45 -86.37,-0.39 c -2.76,-0.01 -4.99,-2.26 -4.98,-5.02 0.01,-2.76 2.26,-4.99 5.02,-4.98 l 86.37,0.39 c 2.76,0.01 4.99,2.26 4.98,5.02 -0.01,2.76 -2.26,4.99 -5.02,4.98"
         style="fill:#1d2a30;fill-opacity:1;fill-rule:nonzero;stroke:none"
         id="path128" /><path
         d="m 2346.35,1873.2 h -199.9 l 0.01,0.05 199.94,0.18 -0.05,-0.23 m 4.6,1178.1 0.04,0.14 h 154.64 l -154.68,-0.14"
         style="fill:#799bd7;fill-opacity:1;fill-rule:nonzero;stroke:none"
         id="path130" /><path
         d="m 2146.46,1873.25 c 11.2,139.18 18.01,234.98 18.01,234.98 l -41.08,0.32 0.04,0.15 c 41.63,-0.29 85.24,-0.5 128.21,-0.5 12.9,101.7 22.31,185.4 28.91,254.3 v 0 c 6.3,65.3 10.19,117.2 12.5,158.4 v 0 0 c 7.19,128.6 -1.2,153.4 -1.2,153.4 0,0 -11.94,2.44 -30.51,5.76 l 89.61,371.24 154.68,0.14 h 125.12 l -284.35,-1178.01 -199.94,-0.18"
         style="fill:#ccdcf3;fill-opacity:1;fill-rule:nonzero;stroke:none"
         id="path132" /><path
         d="m 2589.32,1873.2 h -118.77 l 0.08,0.33 118.79,0.11 -0.1,-0.44"
         style="fill:#799bd7;fill-opacity:1;fill-rule:nonzero;stroke:none"
         id="path134" /><path
         d="m 2470.63,1873.53 284.33,1177.91 h 118.77 l -81.23,-336.52 h -43.95 c -12.4,0 -23.49,-10 -24.78,-22.33 l -10.63,-101.5 c -1.28,-12.33 7.72,-22.33 20.11,-22.33 h 23.97 l -15.74,-65.19 h -17.94 c -12.4,0 -23.49,-10 -24.78,-22.33 l -10.63,-101.49 c -1.21,-11.66 6.76,-21.23 18.09,-22.25 l -116.8,-483.86 -118.79,-0.11"
         style="fill:#ccdcf3;fill-opacity:1;fill-rule:nonzero;stroke:none"
         id="path136" /><path
         d="m 2706.22,2357.5 c -11.33,1.02 -19.3,10.59 -18.09,22.25 l 10.63,101.49 c 1.29,12.33 12.38,22.33 24.78,22.33 h 17.94 l -35.26,-146.07"
         style="fill:#ffffff;fill-opacity:1;fill-rule:nonzero;stroke:none"
         id="path138" /><path
         d="m 2757.22,2568.76 h -23.97 c -12.39,0 -21.39,10 -20.11,22.33 l 10.63,101.5 c 1.29,12.33 12.38,22.33 24.78,22.33 h 43.95 l -35.28,-146.16"
         style="fill:#ffffff;fill-opacity:1;fill-rule:nonzero;stroke:none"
         id="path140" /><path
         d="m 866.531,3419.24 h 56.77 c -57.141,0 -100.215,-46.32 -96.211,-103.45 L 947.57,1592.82 c 3.993,-57.14 53.54,-103.45 110.67,-103.45 h -56.76 c -57.125,0 -106.675,46.31 -110.667,103.45 L 770.32,3315.79 c -3.992,57.13 39.082,103.45 96.211,103.45"
         style="fill:#4870c0;fill-opacity:1;fill-rule:nonzero;stroke:none"
         id="path142" /><path
         d="m 866.531,3419.24 h 56.77 c -57.141,0 -100.215,-46.32 -96.211,-103.45 L 947.57,1592.82 c 3.993,-57.14 53.54,-103.45 110.67,-103.45 h -56.76 c -57.125,0 -114.675,46.31 -118.679,103.45 L 762.324,3315.79 c -3.996,57.13 47.078,103.45 104.207,103.45"
         style="fill:#1d2a30;fill-opacity:1;fill-rule:nonzero;stroke:none"
         id="path144" /><path
         d="m 1018.42,1489.37 h 694.97 c 57.13,0 100.2,46.31 96.21,103.45 l -120.48,1722.97 c -3.99,57.13 -53.54,103.45 -110.68,103.45 H 883.469 c -57.129,0 -100.207,-46.32 -96.215,-103.45 l 120.48,-1722.97 c 3.996,-57.14 53.543,-103.45 110.686,-103.45"
         style="fill:#4870c0;fill-opacity:1;fill-rule:nonzero;stroke:none"
         id="path146" /><path
         d="m 1710.34,1522.56 h -330.01 l 225.87,1841.35 c -12.86,13.61 -31.06,22.14 -51.39,22.14 H 1331.73 L 1103.14,1522.56 h -49.74 l 228.58,1863.49 h -62.35 L 991.531,1526.53 c -28.816,9.78 -50.937,36.58 -53.14,68.03 L 817.91,3317.53 c -1.301,18.47 4.598,35.74 16.594,48.61 11.953,12.83 28.668,19.91 47.078,19.91 h 694.978 c 39.67,0 74.2,-32.3 76.98,-72 l 33,-471.94 c -1.51,0.78 -3.2,1.22 -4.98,1.22 h -66.21 v 0 0 h -5.74 c -5.59,0 -9.93,-4.39 -9.92,-9.92 0,-0.17 0.01,-0.35 0.02,-0.53 l 9.12,-174.15 c 0.3,-5.77 5.23,-10.45 11,-10.45 h 1.71 v 0 h 0.3 l 18.08,-61.74 c -4.38,-2.78 -8.44,-6.06 -12.05,-9.81 2.21,-89.06 18.31,-141.9 44.28,-227.15 4.46,-14.71 14.72,-34.22 27.67,-51.95 6.85,-9.37 16.08,-15.53 26.09,-18.56 l 48.11,-687.99 c 1.29,-18.48 -4.61,-35.74 -16.59,-48.61 -11.95,-12.84 -28.68,-19.91 -47.09,-19.91 m -110.35,1212.08 v 0 l -0.21,0.5 -0.09,-0.5 h 0.3 m -0.3,0.7 0.09,-0.2 v 0.2 h -0.09 m 105.38,-158.27 -4.94,16.77 c -4.56,1.62 -9.28,2.7 -14.07,3.26 0.54,16.75 3.94,35.67 2.64,51.18 h 3.09 c 3.34,0 6.24,1.57 8.02,4.02 l 5.26,-75.23"
         style="fill:#b4caec;fill-opacity:1;fill-rule:nonzero;stroke:none"
         id="path148" /><path
         d="m 1380.33,1522.56 h -277.19 l 228.59,1863.49 h 223.08 c 20.33,0 38.53,-8.53 51.39,-22.14 L 1380.33,1522.56"
         style="fill:#ccdcf3;fill-opacity:1;fill-rule:nonzero;stroke:none"
         id="path150" /><path
         d="m 1053.4,1522.56 h -62.353 l 0.484,3.97 c 7.567,-2.57 15.589,-3.97 23.839,-3.97 h 38.03"
         style="fill:#799bd7;fill-opacity:1;fill-rule:nonzero;stroke:none"
         id="path152" /><path
         d="m 1053.4,1522.56 h -38.03 c -8.25,0 -16.272,1.4 -23.839,3.97 l 228.099,1859.52 h 62.35 L 1053.4,1522.56"
         style="fill:#ccdcf3;fill-opacity:1;fill-rule:nonzero;stroke:none"
         id="path154" /><path
         d="m 1031.77,2566.83 h 503.41 c 2.76,0 5,2.23 5,5 0,2.76 -2.24,5 -5,5 h -503.41 c -2.76,0 -5,-2.24 -5,-5 0,-2.77 2.24,-5 5,-5"
         style="fill:#ffffff;fill-opacity:1;fill-rule:nonzero;stroke:none"
         id="path156" /><path
         d="m 1096.7,2492.38 h 394.32 c 2.76,0 5,2.24 5,5 0,2.76 -2.24,5 -5,5 H 1096.7 c -2.76,0 -5,-2.24 -5,-5 0,-2.76 2.24,-5 5,-5"
         style="fill:#ffffff;fill-opacity:1;fill-rule:nonzero;stroke:none"
         id="path158" /><path
         d="m 1046.78,2915.08 0.69,-19.78 h -12.9 l -0.69,19.94 -22.84,35.89 h 13.7 l 15.76,-24.8 14.02,24.8 h 12.67 l -20.41,-36.05"
         style="fill:#4870c0;fill-opacity:1;fill-rule:nonzero;stroke:none"
         id="path160" /><path
         d="m 1115.67,2923.22 c -0.37,10.6 -8.11,17.86 -18.06,17.86 -9.96,0 -17.19,-7.26 -16.82,-17.86 0.37,-10.61 8.11,-17.87 18.07,-17.87 9.95,0 17.18,7.26 16.81,17.87 z m -47.95,0 c -0.58,16.59 11.89,28.87 29.5,28.87 17.52,0 30.93,-12.21 31.52,-28.87 0.59,-16.67 -11.97,-28.88 -29.49,-28.88 -17.61,0 -30.94,12.29 -31.53,28.88"
         style="fill:#4870c0;fill-opacity:1;fill-rule:nonzero;stroke:none"
         id="path162" /><path
         d="m 1138.14,2919.87 -1.09,31.26 h 12.9 l 1.08,-30.78 c 0.37,-10.62 5.14,-15 12.95,-15 7.89,0 12.27,4.38 11.9,15 l -1.08,30.78 h 12.75 l 1.09,-31.26 c 0.58,-16.43 -8.49,-25.53 -24.34,-25.53 -15.86,0 -25.58,9.1 -26.16,25.53"
         style="fill:#4870c0;fill-opacity:1;fill-rule:nonzero;stroke:none"
         id="path164" /><path
         d="m 1224.13,2940.6 h -10.53 l 0.69,-19.46 h 10.51 c 7.89,0 11.74,3.67 11.53,9.74 -0.22,6.14 -4.33,9.72 -12.2,9.72 z m 13.69,-45.3 -11.3,15.56 h -11.87 l 0.55,-15.56 h -12.91 l -1.95,55.83 h 24.13 c 14.91,0 24.49,-7.74 24.92,-20.25 0.31,-8.38 -3.7,-14.52 -10.85,-17.63 l 13.14,-17.95 h -13.86"
         style="fill:#4870c0;fill-opacity:1;fill-rule:nonzero;stroke:none"
         id="path166" /><path
         d="m 1278.96,2923.22 c -0.59,16.82 11.88,28.87 29.24,28.87 9.64,0 17.82,-3.51 23.29,-9.89 l -8.01,-7.66 c -3.89,4.31 -8.67,6.54 -14.24,6.54 -10.44,0 -17.59,-7.33 -17.22,-17.86 0.37,-10.53 8.03,-17.87 18.47,-17.87 5.57,0 10.19,2.24 13.78,6.62 l 8.55,-7.65 c -5.03,-6.46 -12.95,-9.98 -22.66,-9.98 -17.29,0 -30.62,12.05 -31.2,28.88"
         style="fill:#4870c0;fill-opacity:1;fill-rule:nonzero;stroke:none"
         id="path168" /><path
         d="m 1384.14,2923.22 c -0.37,10.6 -8.11,17.86 -18.07,17.86 -9.96,0 -17.18,-7.26 -16.81,-17.86 0.37,-10.61 8.1,-17.87 18.06,-17.87 9.96,0 17.19,7.26 16.82,17.87 z m -47.95,0 c -0.58,16.59 11.89,28.87 29.49,28.87 17.52,0 30.94,-12.21 31.53,-28.87 0.58,-16.67 -11.98,-28.88 -29.5,-28.88 -17.6,0 -30.93,12.29 -31.52,28.88"
         style="fill:#4870c0;fill-opacity:1;fill-rule:nonzero;stroke:none"
         id="path170" /><path
         d="m 1432.27,2905.91 c 11.07,0 18.08,6.62 17.71,17.31 -0.37,10.68 -7.85,17.3 -18.93,17.3 h -11.78 l 1.21,-34.61 z m -26.27,45.22 h 25.33 c 18.23,0 31.12,-11.01 31.72,-27.91 0.59,-16.91 -11.54,-27.92 -29.77,-27.92 h -25.33 l -1.95,55.83"
         style="fill:#4870c0;fill-opacity:1;fill-rule:nonzero;stroke:none"
         id="path172" /><path
         d="m 1516.6,2905.68 0.36,-10.38 h -43.17 l -1.95,55.83 h 42.13 l 0.37,-10.37 h -29.32 l 0.42,-12.12 h 25.89 l 0.36,-10.05 h -25.89 l 0.45,-12.91 h 30.35"
         style="fill:#4870c0;fill-opacity:1;fill-rule:nonzero;stroke:none"
         id="path174" /><path
         d="m 1143.78,2687.8 0.4,-22.43 h -105.27 l -0.32,17.74 55.78,53.85 c 13.64,13.26 15.94,21.62 15.8,29.57 -0.23,13.06 -9.34,20.61 -26.89,20.61 -13.87,0 -25.41,-4.69 -33.19,-14.89 l -18.82,14.28 c 10.76,14.89 30.4,23.66 53.86,23.66 31,0 51.28,-15.7 51.72,-41 0.24,-13.87 -3.41,-26.52 -22.89,-45.08 l -37.5,-36.31 h 67.32"
         style="fill:#1d2a30;fill-opacity:1;fill-rule:nonzero;stroke:none"
         id="path176" /><path
         d="m 1260.12,2708.2 c 0.42,-24.07 -17.38,-44.88 -55.74,-44.88 -20.19,0 -40.49,6.13 -53.93,16.52 l 11.06,20.61 c 10.35,-8.57 25.95,-14.08 42.06,-14.08 18.98,0 30.05,8.37 29.82,21.62 -0.23,12.86 -9.76,21.22 -31.38,21.22 h -13.05 l -0.32,18.15 31.75,38.56 h -64.87 l -0.38,22.23 h 97.31 l 0.3,-17.74 -33.95,-41.21 c 26.99,-3.47 40.94,-19.58 41.32,-41"
         style="fill:#1d2a30;fill-opacity:1;fill-rule:nonzero;stroke:none"
         id="path178" /><path
         d="m 1306.78,2769.19 c 0.21,-12.24 10.54,-19.99 27.27,-19.99 16.94,0 27.21,7.75 26.99,19.99 -0.22,12.85 -11.36,20.19 -27.69,20.19 -16.32,0 -26.8,-7.34 -26.57,-20.19 z m 59.84,-62.01 c -0.25,14.07 -12.64,22.85 -32.23,22.85 -19.58,0 -31.26,-8.78 -31.01,-22.85 0.25,-14.48 12.24,-23.05 31.82,-23.05 19.59,0 31.68,8.57 31.42,23.05 z m 26.74,-0.82 c 0.47,-26.52 -22.31,-43.04 -57.8,-43.04 -35.5,0 -58.42,16.52 -58.89,43.04 -0.27,15.71 7.68,27.34 22.25,34.06 -11.54,6.33 -18.04,16.53 -18.28,29.99 -0.43,24.48 20.73,39.78 52.35,39.78 31.82,0 53.72,-15.3 54.15,-39.78 0.23,-13.46 -6.11,-23.66 -17.63,-29.99 15.01,-6.72 23.58,-18.35 23.85,-34.06"
         style="fill:#1d2a30;fill-opacity:1;fill-rule:nonzero;stroke:none"
         id="path180" /><path
         d="m 1439.79,2769.19 c 0.21,-12.24 10.54,-19.99 27.27,-19.99 16.93,0 27.21,7.75 26.99,19.99 -0.22,12.85 -11.36,20.19 -27.69,20.19 -16.32,0 -26.8,-7.34 -26.57,-20.19 z m 59.84,-62.01 c -0.25,14.07 -12.64,22.85 -32.23,22.85 -19.58,0 -31.27,-8.78 -31.01,-22.85 0.25,-14.48 12.23,-23.05 31.81,-23.05 19.59,0 31.68,8.57 31.43,23.05 z m 26.74,-0.82 c 0.47,-26.52 -22.31,-43.04 -57.81,-43.04 -35.49,0 -58.41,16.52 -58.88,43.04 -0.28,15.71 7.67,27.34 22.24,34.06 -11.53,6.33 -18.03,16.53 -18.27,29.99 -0.43,24.48 20.73,39.78 52.35,39.78 31.82,0 53.72,-15.3 54.15,-39.78 0.23,-13.46 -6.12,-23.66 -17.63,-29.99 15.01,-6.72 23.57,-18.35 23.85,-34.06"
         style="fill:#1d2a30;fill-opacity:1;fill-rule:nonzero;stroke:none"
         id="path182" /><path
         d="m 762.199,3169.14 17.735,-241.71 c 0.203,-2.76 2.601,-4.82 5.355,-4.63 2.754,0.21 4.82,2.61 4.617,5.36 l -17.73,241.71 c -0.203,2.75 -2.602,4.82 -5.356,4.62 -2.754,-0.2 -4.82,-2.6 -4.621,-5.35"
         style="fill:#4870c0;fill-opacity:1;fill-rule:nonzero;stroke:none"
         id="path184" /><path
         d="m 754.125,3279.24 4.676,-63.78 c 0.203,-2.75 2.601,-4.82 5.355,-4.62 2.754,0.21 4.821,2.6 4.621,5.36 l -4.679,63.78 c -0.203,2.75 -2.598,4.82 -5.352,4.62 -2.754,-0.21 -4.824,-2.6 -4.621,-5.36"
         style="fill:#4870c0;fill-opacity:1;fill-rule:nonzero;stroke:none"
         id="path186" /><path
         d="m 1238.7,3519.94 v 147.15 c 0,2.77 -2.24,5 -5,5 -2.76,0 -5,-2.23 -5,-5 v -147.15 c 0,-2.76 2.24,-5 5,-5 2.76,0 5,2.24 5,5"
         style="fill:#4870c0;fill-opacity:1;fill-rule:nonzero;stroke:none"
         id="path188" /><path
         d="m 1121.54,3491.3 -73.55,127.36 c -1.38,2.39 -4.44,3.21 -6.83,1.83 -2.39,-1.38 -3.21,-4.44 -1.83,-6.83 l 73.55,-127.36 c 1.38,-2.39 4.44,-3.21 6.83,-1.83 2.39,1.39 3.21,4.44 1.83,6.83"
         style="fill:#4870c0;fill-opacity:1;fill-rule:nonzero;stroke:none"
         id="path190" /><path
         d="m 1419.41,3618.66 -73.55,-127.42 c -1.38,-2.39 -0.56,-5.44 1.84,-6.83 2.39,-1.37 5.45,-0.55 6.83,1.84 l 73.54,127.41 c 1.38,2.39 0.56,5.45 -1.83,6.83 -2.39,1.38 -5.45,0.56 -6.83,-1.83"
         style="fill:#4870c0;fill-opacity:1;fill-rule:nonzero;stroke:none"
         id="path192" /><path
         d="m 3134.06,909.48 c -42.12,-168.789 -63.44,-342.75 -63.44,-516.71 0,-35.231 0.88,-70.461 2.63,-105.641 l 9.99,0.5 c -1.75,35.019 -2.62,70.082 -2.62,105.141 0,173.14 21.22,346.289 63.15,514.289 l -9.71,2.421"
         style="fill:#4870c0;fill-opacity:1;fill-rule:nonzero;stroke:none"
         id="path194" /><path
         d="m 3092.21,916.891 c 0.45,-18.672 17.19,-84.68 35.87,-84.231 18.67,0.449 32.19,67.192 31.74,85.86 -0.45,18.671 -15.95,33.449 -34.62,33 -18.68,-0.45 -33.44,-15.961 -32.99,-34.629"
         style="fill:#4870c0;fill-opacity:1;fill-rule:nonzero;stroke:none"
         id="path196" /><path
         d="m 3164.94,706.988 c -0.46,18.672 -17.2,84.672 -35.87,84.231 -18.67,-0.449 -32.2,-67.199 -31.75,-85.867 0.45,-18.68 15.96,-33.442 34.62,-32.993 18.69,0.45 33.45,15.961 33,34.629"
         style="fill:#4870c0;fill-opacity:1;fill-rule:nonzero;stroke:none"
         id="path198" /><path
         d="m 3023.62,775.57 c 18.67,0.45 84.68,17.2 84.23,35.871 -0.46,18.661 -67.2,32.2 -85.87,31.75 -18.67,-0.461 -33.44,-15.961 -32.99,-34.632 0.45,-18.668 15.96,-33.438 34.63,-32.989"
         style="fill:#4870c0;fill-opacity:1;fill-rule:nonzero;stroke:none"
         id="path200" /><path
         d="m 3233.53,848.309 c -18.68,-0.457 -84.68,-17.2 -84.23,-35.868 0.45,-18.679 67.18,-32.203 85.86,-31.75 18.67,0.45 33.44,15.957 32.98,34.629 -0.44,18.66 -15.95,33.43 -34.61,32.989"
         style="fill:#4870c0;fill-opacity:1;fill-rule:nonzero;stroke:none"
         id="path202" /><path
         d="m 3028.64,860.43 c 13.53,-12.879 72.04,-47.719 84.92,-34.192 12.9,13.524 -24.73,70.282 -38.26,83.16 -13.52,12.891 -34.93,12.372 -47.81,-1.148 -12.88,-13.531 -12.36,-34.922 1.15,-47.82"
         style="fill:#4870c0;fill-opacity:1;fill-rule:nonzero;stroke:none"
         id="path204" /><path
         d="m 3228.5,763.441 c -13.52,12.879 -72.04,47.719 -84.93,34.2 -12.88,-13.52 24.75,-70.282 38.28,-83.172 13.51,-12.879 34.93,-12.367 47.8,1.16 12.89,13.531 12.37,34.93 -1.15,47.812"
         style="fill:#4870c0;fill-opacity:1;fill-rule:nonzero;stroke:none"
         id="path206" /><path
         d="m 3080.08,712.012 c 12.88,13.519 47.71,72.039 34.19,84.918 -13.52,12.879 -70.28,-24.739 -83.17,-38.262 -12.88,-13.527 -12.36,-34.93 1.17,-47.816 13.52,-12.883 34.92,-12.364 47.81,1.16"
         style="fill:#4870c0;fill-opacity:1;fill-rule:nonzero;stroke:none"
         id="path208" /><path
         d="m 3177.07,911.859 c -12.88,-13.519 -47.72,-72.031 -34.2,-84.918 13.53,-12.882 70.28,24.739 83.17,38.27 12.89,13.527 12.36,34.93 -1.16,47.809 -13.52,12.878 -34.93,12.371 -47.81,-1.161"
         style="fill:#4870c0;fill-opacity:1;fill-rule:nonzero;stroke:none"
         id="path210" /><path
         d="m 3088.54,810.969 c 0.53,-22.117 18.89,-39.61 41,-39.071 22.11,0.543 39.61,18.903 39.07,41.012 -0.53,22.11 -18.89,39.602 -41,39.07 -22.12,-0.539 -39.61,-18.902 -39.07,-41.011"
         style="fill:#ffffff;fill-opacity:1;fill-rule:nonzero;stroke:none"
         id="path212" /><path
         d="m 3082.8,513.309 c 0,0 6.91,102.14 62.96,118.3 56.06,16.153 76.63,38.039 76.63,38.039 0,0 -5.67,-158.296 -139.59,-156.339"
         style="fill:#4870c0;fill-opacity:1;fill-rule:nonzero;stroke:none"
         id="path214" /><path
         d="m 3085.26,513.301 c -0.4,0 -0.81,0 -1.21,0 -0.42,0 -0.83,0.008 -1.25,0.008 0,0 6.91,102.14 62.96,118.3 56.06,16.153 76.63,38.039 76.63,38.039 0,0 -1.16,-32.437 -14.86,-67.769 -0.32,-0.828 -0.65,-1.66 -0.99,-2.5 -16.75,-41.539 -51.08,-86.078 -121.28,-86.078"
         style="fill:#a1bce6;fill-opacity:1;fill-rule:nonzero;stroke:none"
         id="path216" /><path
         d="m 3075.39,435.141 c 0,0 -6.9,102.129 -62.96,118.289 -56.04,16.148 -76.63,38.05 -76.63,38.05 0,0 5.68,-158.3 139.59,-156.339"
         style="fill:#4870c0;fill-opacity:1;fill-rule:nonzero;stroke:none"
         id="path218" /><path
         d="m 3072.93,435.121 c -131.51,0 -137.13,156.359 -137.13,156.359 0,0 20.59,-21.902 76.63,-38.05 56.06,-16.16 62.96,-118.289 62.96,-118.289 -0.82,-0.012 -1.64,-0.02 -2.46,-0.02"
         style="fill:#a1bce6;fill-opacity:1;fill-rule:nonzero;stroke:none"
         id="path220" /><path
         d="m 3286.99,222.441 c 0,-79.703 -94.9,-144.2027 -211.9,-144.2027 -117.1,0 -211.9,64.4997 -211.9,144.2027 0,40.297 24.3,76.797 63.61,102.899 22.69,15.199 50.39,26.898 81.19,33.808 h 134.2 c 31.71,-7.207 60.1,-19.308 83.1,-35.109 38.21,-26.098 61.7,-61.898 61.7,-101.598"
         style="fill:#4870c0;fill-opacity:1;fill-rule:nonzero;stroke:none"
         id="path222" /><path
         d="m 2863.38,228.551 c 2.32,37.871 26.11,72.019 63.41,96.789 9.84,6.59 20.62,12.519 32.18,17.691 -11.56,-5.172 -22.34,-11.101 -32.17,-17.691 -37.31,-24.77 -61.1,-58.918 -63.42,-96.789"
         style="fill:#ffffff;fill-opacity:1;fill-rule:nonzero;stroke:none"
         id="path224" /><path
         d="m 3075.09,78.2383 c -117.1,0 -211.9,64.4997 -211.9,144.2027 0,2.039 0.07,4.079 0.19,6.11 2.32,37.871 26.11,72.019 63.42,96.789 9.83,6.59 20.61,12.519 32.17,17.691 15.11,6.75 31.57,12.199 49.02,16.11 h 134.2 c 31.71,-7.2 60.1,-19.301 83.1,-35.102 38.21,-26.098 61.7,-61.898 61.7,-101.598 0,-79.703 -94.9,-144.2027 -211.9,-144.2027"
         style="fill:#dbe8f7;fill-opacity:1;fill-rule:nonzero;stroke:none"
         id="path226" /><path
         d="m 3070.69,346.16 c 0,-23.762 0,-47.519 0,-71.281 h 10 c 0,23.762 0,47.519 0,71.281 h -10"
         style="fill:#4870c0;fill-opacity:1;fill-rule:nonzero;stroke:none"
         id="path228" /><path
         d="m 3234.62,361.371 -11.25,-35.051 -0.18,-0.351 h -296.3 l -0.62,1.871 -10.7,33.531 h 319.05"
         style="fill:#4870c0;fill-opacity:1;fill-rule:nonzero;stroke:none"
         id="path230" /><path
         d="m 3261.96,193.488 c -20.43,-29.519 -49.51,-53.066 -81.38,-69.976 -50.91,-27.012 -265.01,-33.9807 -289.45,87.5 -0.34,1.687 -0.91,3.328 -1.22,5.039 -5.84,31.777 22.44,60.039 54.6,56.828 19.97,-2.008 40.83,0.371 60.7,3.391 76.6,11.671 155.57,7.398 230.48,-12.348 30.61,-8.082 44.28,-44.402 26.27,-70.434"
         style="fill:#1d2a30;fill-opacity:1;fill-rule:nonzero;stroke:none"
         id="path232" /><path
         d="m 1727.86,246.73 c 0.51,-0.519 1.05,-1.351 0.6,-3.039 -0.81,-3.152 -2.38,-5.089 -4.79,-5.961 -5.67,-2.031 -16.52,1.801 -29.53,10.309 12.57,1.93 29.67,2.981 33.72,-1.309 z m -2.76,-12.859 c 3.75,1.348 6.24,4.309 7.4,8.801 0.88,3.387 -0.39,5.617 -1.61,6.887 -7.71,8.043 -38.99,2.332 -42.52,1.66 l -1.64,-1.59 0.82,-2.098 c 5.19,-3.66 12.77,-8.511 20.3,-11.562 6.26,-2.528 12.48,-3.801 17.25,-2.098"
         style="fill:#4870c0;fill-opacity:1;fill-rule:nonzero;stroke:none"
         id="path234" /><path
         d="m 1716.23,273.77 c 2.34,-1.29 2.42,-2.571 2.23,-3.551 -1.18,-5.957 -15.83,-15.207 -26.12,-18.16 3.66,7.5 10.87,19.711 18.08,22.171 1.75,0.61 3.37,0.59 4.96,-0.058 z m -27.21,-26.602 c 9.57,1.184 31.6,12.492 33.53,22.262 0.37,1.871 0.31,5.39 -4.28,7.922 -2.9,1.609 -6.01,1.859 -9.23,0.757 -12.06,-4.129 -21.79,-27.148 -22.2,-28.121 l 0.27,-2.039 0.86,-0.64 1.05,-0.141"
         style="fill:#4870c0;fill-opacity:1;fill-rule:nonzero;stroke:none"
         id="path236" /><path
         d="m 1594.09,287.469 81.41,-32.91 71.05,188.101 -81.4,32.899 -71.06,-188.09"
         style="fill:#f8a461;fill-opacity:1;fill-rule:nonzero;stroke:none"
         id="path238" /><path
         d="m 1685.82,261.23 -91.45,36.969 c -3.33,1.34 -6.99,0.153 -8.78,-2.847 l -40.15,-67 c -4.16,-6.954 -0.63,-16.551 7.11,-19.524 32.11,-12.34 48.24,-16.719 88.47,-32.976 24.73,-10 59.83,-27.133 94,-40.942 33.42,-13.512 49.87,18.699 36.89,27.461 -58.15,39.289 -60.46,61.981 -74.54,88.438 -2.54,4.761 -6.68,8.453 -11.55,10.421"
         style="fill:#1d2a30;fill-opacity:1;fill-rule:nonzero;stroke:none"
         id="path240" /><path
         d="m 1745.51,350.379 -141.4,57.141 12.96,51.82 151.7,-55.5 -23.26,-53.461"
         style="fill:#4870c0;fill-opacity:1;fill-rule:nonzero;stroke:none"
         id="path242" /><path
         d="m 1887.07,2527.52 c -28.68,-83.03 -113.61,-278.62 -179.04,-197.16 -11.67,14.55 -21.63,30.29 -28.58,47.6 -27.78,68.54 -34.61,179.55 -38.13,203.8 l -22.29,76.1 c -0.39,1.31 -0.58,2.67 -0.6,4.04 l -0.36,43.45 c 0,17.61 14.2,28.08 33.41,26.47 0,0 31,3.62 31,-14.9 l 6.04,-65.22 h -0.2 c 3.12,-22.74 -5.94,-54.34 -0.6,-75.17 19.92,-78.3 47.48,-81.82 64.79,-162.63 24.06,58.27 67.24,159.21 67.24,159.21 29.08,-3.62 76.78,-18.22 67.32,-45.59"
         style="fill:#f8a461;fill-opacity:1;fill-rule:nonzero;stroke:none"
         id="path244" /><path
         d="m 1784.51,2300.52 c -19.53,-30.13 -63.49,-31.88 -84.69,-2.89 -12.95,17.73 -23.21,37.24 -27.67,51.95 -25.97,85.25 -42.07,138.09 -44.28,227.15 18.12,18.82 47.6,25.87 72.26,17.11 l 42.56,-144.32 c 0,0 86.76,215.5 121.78,223.25 41.37,9.06 58.58,-27.8 75.99,-73.2 12.55,-32.65 -99.43,-211.88 -155.95,-299.05"
         style="fill:#4870c0;fill-opacity:1;fill-rule:nonzero;stroke:none"
         id="path246" /><path
         d="m 2134.81,2888.41 c -9.81,-50.02 -31.83,-159.14 3.16,-192.52 0,0 -13.67,-50.74 -106.62,-50.74 -102.2,0 -48.84,50.74 -48.84,50.74 55.78,13.32 54.34,54.71 44.62,93.57 l 107.68,98.95"
         style="fill:#f8a461;fill-opacity:1;fill-rule:nonzero;stroke:none"
         id="path248" /><path
         d="m 1978.49,3006.39 1.77,0.42 c 1.98,0.99 2.78,3.39 1.79,5.36 -9.89,19.75 -28.18,22.04 -28.96,22.13 -2.18,0.27 -4.17,-1.33 -4.42,-3.52 -0.25,-2.18 1.32,-4.15 3.5,-4.41 0.6,-0.08 14.84,-2.01 22.74,-17.78 0.71,-1.39 2.11,-2.2 3.58,-2.2"
         style="fill:#1d2a30;fill-opacity:1;fill-rule:nonzero;stroke:none"
         id="path250" /><path
         d="m 1948.01,2962.67 c 0,0 -15.05,-27.63 -29.39,-40.09 7.88,-9.42 23.5,-7.49 23.5,-7.49 l 5.89,47.58"
         style="fill:#f5782f;fill-opacity:1;fill-rule:nonzero;stroke:none"
         id="path252" /><path
         d="m 1956.04,2977.3 c 1.44,-6.64 -0.91,-12.79 -5.26,-13.74 -4.34,-0.94 -9.03,3.69 -10.48,10.33 -1.43,6.65 0.92,12.8 5.26,13.74 4.34,0.94 9.04,-3.68 10.48,-10.33"
         style="fill:#1d2a30;fill-opacity:1;fill-rule:nonzero;stroke:none"
         id="path254" /><path
         d="m 1947.56,2987.68 -16.95,1.14 c 0,0 10.88,-10.69 16.95,-1.14"
         style="fill:#1d2a30;fill-opacity:1;fill-rule:nonzero;stroke:none"
         id="path256" /><path
         d="m 1599.78,2735.34 v -0.2 l -0.09,0.2 h 0.09"
         style="fill:#f8a461;fill-opacity:1;fill-rule:nonzero;stroke:none"
         id="path258" /><path
         d="m 1862.43,2423.17 0.45,3.16 c 9.03,15.23 17.86,30.49 26.15,45.31 0.16,-1.05 0.32,-2.1 0.49,-3.15 -10.11,-18.52 -20.35,-34.91 -27.09,-45.32"
         style="fill:#cecdcc;fill-opacity:1;fill-rule:nonzero;stroke:none"
         id="path260" /><path
         d="m 1862.88,2426.33 15.46,108.02 c 4.02,-21.86 7.57,-42.74 10.69,-62.71 -8.29,-14.82 -17.12,-30.08 -26.15,-45.31"
         style="fill:#395eb4;fill-opacity:1;fill-rule:nonzero;stroke:none"
         id="path262" /><path
         d="m 2293.05,2520.9 c -2.31,-41.2 -6.2,-93.1 -12.5,-158.4 -6.6,-68.9 -16.01,-152.6 -28.91,-254.3 -135.9,0 -278.19,2.1 -344.3,2.1 5.53,135.08 7.58,271.95 -53.03,540.81 -3.19,14.13 6.07,28.11 20.33,30.65 27.44,4.89 72.93,11.88 119.21,14.14 57.59,2.8 104.79,4.6 155.5,0 66.69,-6.1 142.5,-21.6 142.5,-21.6 0,0 8.39,-24.8 1.2,-153.4"
         style="fill:#4870c0;fill-opacity:1;fill-rule:nonzero;stroke:none"
         id="path264" /><path
         d="m 2280.55,2362.5 c -36.61,42.4 -71.2,188.4 -60.21,238.3 27,-18.4 52,-46.7 71.11,-72 0.59,-2.4 1.2,-5 1.6,-7.9 -2.31,-41.2 -6.2,-93.1 -12.5,-158.4 v 0"
         style="fill:#395eb4;fill-opacity:1;fill-rule:nonzero;stroke:none"
         id="path266" /><path
         d="m 2645.94,2337.87 69.64,39.16 13,-71.31 c 0,0 -59.01,-22.61 -90.26,-6.77 l 7.62,38.92"
         style="fill:#f8a461;fill-opacity:1;fill-rule:nonzero;stroke:none"
         id="path268" /><path
         d="m 2762.23,2368.92 4.83,-23.27 c 1.52,-7.32 -1.51,-14.83 -7.7,-19.03 l -30.78,-20.9 -13,71.31 24.08,6.04 c 10.17,2.55 20.43,-3.88 22.57,-14.15"
         style="fill:#f8a461;fill-opacity:1;fill-rule:nonzero;stroke:none"
         id="path270" /><path
         d="m 2225.97,2591.66 c 22.32,-45.42 104.18,-216.88 140.15,-256.52 l 7.05,-7.39 3.52,-3.68 c 1.21,-1.24 2.17,-2.34 4.09,-4.02 6.75,-6.35 13.94,-11.68 21.22,-16.04 14.6,-8.75 29.39,-13.88 43.62,-17.6 28.47,-7.12 55.53,-8.29 81.78,-7.77 52.61,2.06 101.84,10.89 151.01,25.65 l -8.94,41.74 c -23.04,-1.96 -47.27,-3.37 -70.7,-3.76 -23.54,-0.65 -46.93,0 -69.5,2.19 -22.5,1.95 -44.43,5.9 -62.96,12.25 -9.15,3.26 -17.22,7.4 -23.25,11.75 -3.03,2.16 -5.46,4.44 -7.43,6.63 -0.41,0.31 -1.41,1.56 -2.26,2.58 l -2.61,3.12 -5.22,6.22 c -27.64,34.59 -100.53,201.36 -122.41,243.06 l -77.16,-38.41"
         style="fill:#f8a461;fill-opacity:1;fill-rule:nonzero;stroke:none"
         id="path272" /><path
         d="m 2644.83,2266.91 c -56.75,-30.6 -125.89,-37.34 -187.49,-18.21 -58.57,18.21 -110.7,60.68 -140.89,114.12 -36.14,53.14 -132.24,203.33 -120.16,242.18 14.29,46.4 44.69,75.18 95.51,62.7 35.72,-8.66 103.84,-182 136.75,-251.34 12.99,-19.32 37.75,-49.91 65.42,-59.38 48.92,-16.9 84.95,-9.56 136.17,-2.31 9.36,-5.64 8.66,-14.29 13.39,-24.05 9.66,-19.73 11.26,-44.18 1.3,-63.71"
         style="fill:#4870c0;fill-opacity:1;fill-rule:nonzero;stroke:none"
         id="path274" /><path
         d="m 2185.23,2968.61 c -15.34,-82.24 -20.07,-117.38 -67.19,-154.74 -70.88,-56.2 -168.55,-19.36 -178.09,65.81 -8.58,76.66 17.95,198.28 103.16,221.22 83.93,22.61 157.47,-50.04 142.12,-132.29"
         style="fill:#f8a461;fill-opacity:1;fill-rule:nonzero;stroke:none"
         id="path276" /><path
         d="m 2477,2513.46 c -15.7,-17.89 -20.65,-28.26 -42.45,-37.95 -21.8,-9.7 -69.39,-1.26 -84.49,17.24 4.9,-14.4 33.54,-40.28 48.54,-42.29 -33.2,-19.4 -79.9,-11.2 -104.6,18.4 2.4,-17.5 18.9,-33.2 35.6,-39.09 -191.63,-4.96 -110.94,85.22 -230.86,213.45 -132.85,142.05 -104.04,259.44 -104.04,259.44 -0.1,20.3 -4.6,54 -26.1,81.4 -19.2,24.6 -13.6,57.8 -7.5,76.4 8.9,27.3 36,36.9 62,38.5 4.58,26.94 59.62,21.98 66.67,17.49 6.04,-3.86 7.57,-3.54 13.61,0.33 13.53,8.67 47.52,17.72 83.92,-11.72 22.22,-17.96 45.95,-50.19 46.75,-118.79 0.83,-71.34 -33.21,-155.98 84.71,-264.36 69.49,-63.86 36.27,-200.96 158.24,-208.45"
         style="fill:#1d2a30;fill-opacity:1;fill-rule:nonzero;stroke:none"
         id="path278" /><path
         d="m 1978.9,2962.4 c -10.11,-14 -13.01,-31.4 -10.78,-45.44 3.35,-21.1 23.93,-22.51 38.82,-8.98 13.41,12.18 27.83,37.84 16.85,55.34 -10.82,17.24 -33.33,15.08 -44.89,-0.92"
         style="fill:#f8a461;fill-opacity:1;fill-rule:nonzero;stroke:none"
         id="path280" /><path
         d="m 2164.47,2108.23 c 0,0 -40.82,-574.07 -86.91,-952.72 -13.81,-113.45 -48.39,-223.44 -102.15,-324.721 l -225.87,-425.578 -115.6,45.457 c 0,0 79.63,404.543 235.83,625.122 0,0 -116.59,659.29 36,1034.46 l 258.7,-2.02"
         style="fill:#1d2a30;fill-opacity:1;fill-rule:nonzero;stroke:none"
         id="path282" /><path
         d="m 2060.55,1554.49 c -70.92,93.01 -125.23,222.76 -53.26,414.72 0,0 34.37,-260.41 53.26,-414.72"
         style="fill:#182124;fill-opacity:1;fill-rule:nonzero;stroke:none"
         id="path284" /><path
         d="m 2452.73,192.602 c 0.71,-0.223 1.57,-0.723 1.99,-2.422 0.77,-3.141 0.31,-5.59 -1.4,-7.461 -4.04,-4.41 -15.46,-6.039 -31.01,-4.5 10.2,7.492 24.8,16.301 30.42,14.383 z m 3.69,-12.633 c 2.66,2.922 3.46,6.679 2.35,11.179 -0.83,3.403 -3.02,4.782 -4.7,5.34 -10.64,3.563 -35.56,-15.898 -38.37,-18.136 l -0.69,-2.133 1.73,-1.489 c 6.33,-0.839 15.33,-1.64 23.43,-0.859 6.73,0.66 12.84,2.391 16.25,6.098"
         style="fill:#4870c0;fill-opacity:1;fill-rule:nonzero;stroke:none"
         id="path286" /><path
         d="m 2429.59,211.129 c 2.69,-0.059 3.37,-1.149 3.66,-2.109 1.79,-5.809 -6.76,-20.731 -14.43,-28.079 -0.34,8.309 0.22,22.418 5.42,27.918 1.26,1.34 2.7,2.071 4.4,2.243 z m -11.38,-36.039 c 7.89,5.461 21.97,25.59 19.03,35.121 -0.56,1.828 -2.29,4.898 -7.55,5.019 -3.32,0.09 -6.2,-1.121 -8.51,-3.57 -8.7,-9.211 -6.35,-34.039 -6.24,-35.09 l 1.2,-1.672 1.08,-0.179 0.99,0.371"
         style="fill:#4870c0;fill-opacity:1;fill-rule:nonzero;stroke:none"
         id="path288" /><path
         d="m 2315.16,166.949 87.58,8.442 -26.72,198.937 -87.59,-8.437 26.73,-198.942"
         style="fill:#f8a461;fill-opacity:1;fill-rule:nonzero;stroke:none"
         id="path290" /><path
         d="m 2408.69,186.039 -98.4,-9.48 c -3.58,-0.348 -6.25,-3.079 -6.4,-6.571 l -3.6,-77.6872 c -0.37,-8.0625 7.33,-14.9102 15.58,-13.9727 34.25,3.8828 50.58,7.461 93.86,11.6328 26.62,2.5586 65.78,3.5899 102.55,7.1289 35.95,3.4692 35.16,39.5122 19.53,41.2692 -70.09,7.911 -82.92,26.911 -107.95,43.782 -4.51,3.05 -9.92,4.398 -15.17,3.898"
         style="fill:#1d2a30;fill-opacity:1;fill-rule:nonzero;stroke:none"
         id="path292" /><path
         d="m 2251.11,2108.37 c 0,0 112.05,-685.1 133.64,-1090.94 l 4.03,-726.95 -90.66,-17.691 c 0,0 -131.36,463.781 -146.48,731.841 -40.1,711.28 -271.77,712.45 -132.38,1105.01 l 231.85,-1.27"
         style="fill:#1d2a30;fill-opacity:1;fill-rule:nonzero;stroke:none"
         id="path294" /><path
         d="m 2418.9,287.488 -150.14,-20.558 -15.22,57.648 160.46,20.871 4.9,-57.961"
         style="fill:#4870c0;fill-opacity:1;fill-rule:nonzero;stroke:none"
         id="path296" /><path
         d="m 1599.99,2734.64 h -0.3 l 0.09,0.5 0.21,-0.5"
         style="fill:#f8a461;fill-opacity:1;fill-rule:nonzero;stroke:none"
         id="path298" /><path
         d="m 1609.61,2843.33 h 5.74 c -5.78,0 -10.21,-4.68 -9.91,-10.45 l 9.13,-174.15 c 0.3,-5.77 5.22,-10.45 11,-10.45 h -5.74 c -5.77,0 -10.7,4.68 -11,10.45 l -9.12,174.15 c -0.31,5.77 4.13,10.45 9.9,10.45"
         style="fill:#4870c0;fill-opacity:1;fill-rule:nonzero;stroke:none"
         id="path300" /><path
         d="m 1621.54,2648.28 h -1.71 c -5.77,0 -10.7,4.68 -11,10.45 l -9.12,174.15 c -0.01,0.18 -0.02,0.36 -0.02,0.53 -0.01,5.53 4.33,9.92 9.92,9.92 h 5.74 v 0 h -4.03 c -5.59,0 -9.93,-4.39 -9.92,-9.92 0,-0.17 0.01,-0.35 0.02,-0.53 l 9.12,-174.15 c 0.3,-5.77 5.23,-10.45 11,-10.45"
         style="fill:#537bc6;fill-opacity:1;fill-rule:nonzero;stroke:none"
         id="path302" /><path
         d="m 1621.54,2648.28 h 70.25 c 5.77,0 10.2,4.68 9.9,10.45 l -9.12,174.15 c -0.3,5.77 -5.24,10.45 -11.01,10.45 h -70.24 c -5.77,0 -10.21,-4.68 -9.9,-10.45 l 9.12,-174.15 c 0.3,-5.77 5.23,-10.45 11,-10.45"
         style="fill:#4870c0;fill-opacity:1;fill-rule:nonzero;stroke:none"
         id="path304" /><path
         d="m 1691.79,2648.28 h -70.25 c -5.77,0 -10.7,4.68 -11,10.45 l -9.12,174.15 c -0.01,0.18 -0.02,0.36 -0.02,0.53 -0.01,5.53 4.33,9.92 9.92,9.92 h 70.24 c 5.77,0 10.71,-4.68 11.01,-10.45 l 9.12,-174.15 c 0.01,-0.18 0.01,-0.36 0.01,-0.53 0.01,-5.53 -4.32,-9.92 -9.91,-9.92 m -68.4,7.38 v 0 h 6.11 9.8 27.1 24.5 c 1.8,0 3.5,0.7 4.7,1.9 1.2,1.3 1.8,3.01 1.7,4.8 l -8.3,156.8 -0.6,12.1 c -0.2,3.91 -3.5,7.1 -7.4,7.1 h -68.1 c -1.8,0 -3.5,-0.69 -4.7,-2 -1.2,-1.19 -1.8,-2.9 -1.7,-4.7 l 8.9,-168.9 c 0.2,-3.9 3.5,-7.1 7.4,-7.1 h 0.59"
         style="fill:#8daee0;fill-opacity:1;fill-rule:nonzero;stroke:none"
         id="path306" /><path
         d="m 1697.3,2662.36 c 0.1,-1.79 -0.5,-3.5 -1.7,-4.8 -1.2,-1.2 -2.9,-1.9 -4.7,-1.9 h -68.1 c -3.9,0 -7.2,3.2 -7.4,7.1 l -8.9,168.9 c -0.1,1.8 0.5,3.51 1.7,4.7 1.2,1.31 2.9,2 4.7,2 h 68.1 c 3.9,0 7.2,-3.19 7.4,-7.1 l 0.6,-12.1 8.3,-156.8"
         style="fill:#1d2a30;fill-opacity:1;fill-rule:nonzero;stroke:none"
         id="path308" /><path
         d="m 1666.4,2655.66 h -27.1 l 25.6,182.7 h 16.1 c 3.9,0 7.2,-3.19 7.4,-7.1 l 0.6,-12.1 -22.6,-163.5"
         style="fill:#304047;fill-opacity:1;fill-rule:nonzero;stroke:none"
         id="path310" /><path
         d="m 1629.5,2655.66 h -6.11 6.11 v 0"
         style="fill:#99b6e4;fill-opacity:1;fill-rule:nonzero;stroke:none"
         id="path312" /><path
         d="m 1629.5,2655.66 h -6.11 l 25.61,182.7 h 6.12 l -25.62,-182.7"
         style="fill:#304047;fill-opacity:1;fill-rule:nonzero;stroke:none"
         id="path314" /><path
         d="m 1885.21,2088.84 c -50.92,-99.83 -78.63,-211.41 -80.32,-323.46 170.23,-131.89 328.31,22.56 522.89,-3.53 -6.78,87.88 -36.64,250.49 -72.1,331.19 -128.58,-5.43 -249,7.41 -370.47,-4.2"
         style="fill:#4870c0;fill-opacity:1;fill-rule:nonzero;stroke:none"
         id="path316" /><path
         d="m 1902.92,2124.53 c 0,0 -13.74,-35.22 -9.8,-35.22 h 356.76 c 3.07,0 5.61,1.51 5.8,3.43 l 3.07,30.45 c 0.21,2.11 -2.44,3.9 -5.8,3.9 h -344.49 c -2.53,0 -4.78,-1.04 -5.54,-2.56"
         style="fill:#ffffff;fill-opacity:1;fill-rule:nonzero;stroke:none"
         id="path318" /><path
         d="m 1953.18,2086.31 h -9.22 c -1.84,0 -3.24,0.95 -3.11,2.11 l 4.33,39.56 c 0.12,1.16 1.72,2.11 3.56,2.11 h 9.23 c 1.83,0 3.24,-0.95 3.11,-2.11 l -4.32,-39.56 c -0.13,-1.16 -1.74,-2.11 -3.58,-2.11"
         style="fill:#4870c0;fill-opacity:1;fill-rule:nonzero;stroke:none"
         id="path320" /><path
         d="m 2176.82,2086.31 h -9.22 c -1.84,0 -3.24,0.95 -3.12,2.11 l 4.33,39.56 c 0.13,1.16 1.74,2.11 3.57,2.11 h 9.23 c 1.84,0 3.23,-0.95 3.11,-2.11 l -4.33,-39.56 c -0.13,-1.16 -1.73,-2.11 -3.57,-2.11"
         style="fill:#4870c0;fill-opacity:1;fill-rule:nonzero;stroke:none"
         id="path322" /></g></g></svg>
