<?xml version="1.0" encoding="UTF-8" standalone="no"?>
<svg
   xmlns:dc="http://purl.org/dc/elements/1.1/"
   xmlns:cc="http://creativecommons.org/ns#"
   xmlns:rdf="http://www.w3.org/1999/02/22-rdf-syntax-ns#"
   xmlns:svg="http://www.w3.org/2000/svg"
   xmlns="http://www.w3.org/2000/svg"
   xmlns:sodipodi="http://sodipodi.sourceforge.net/DTD/sodipodi-0.dtd"
   xmlns:inkscape="http://www.inkscape.org/namespaces/inkscape"
   version="1.1"
   id="svg2"
   xml:space="preserve"
   width="3333.3333"
   height="2666.6667"
   viewBox="0 0 3333.3333 2666.6667"
   sodipodi:docname="User_follower_icons_social_media_notification_icon_in_speech_bubbles_vector_illustration.eps"><metadata
     id="metadata8"><rdf:RDF><cc:Work
         rdf:about=""><dc:format>image/svg+xml</dc:format><dc:type
           rdf:resource="http://purl.org/dc/dcmitype/StillImage" /></cc:Work></rdf:RDF></metadata><defs
     id="defs6" /><sodipodi:namedview
     pagecolor="#ffffff"
     bordercolor="#666666"
     borderopacity="1"
     objecttolerance="10"
     gridtolerance="10"
     guidetolerance="10"
     inkscape:pageopacity="0"
     inkscape:pageshadow="2"
     inkscape:window-width="640"
     inkscape:window-height="480"
     id="namedview4" /><g
     id="g10"
     inkscape:groupmode="layer"
     inkscape:label="ink_ext_XXXXXX"
     transform="matrix(1.3333333,0,0,-1.3333333,0,2666.6667)"><g
       id="g12"
       transform="scale(0.1)"><path
         d="M 0,0 H 25000 V 20000 H 0 Z"
         style="fill:none;fill-opacity:1;fill-rule:nonzero;stroke:none"
         id="path14" /><path
         d="M 17359.9,7625.5 H 14360 L 12862.2,5812.7 c -226.6,-274.3 -649.3,-267.2 -866.5,14.5 L 10609,7625.5 H 7640.09 c -1332.23,0 -2412.21,1080 -2412.21,2412.2 v 5073.1 c 0,1332.2 1079.98,2412.2 2412.21,2412.2 h 9719.81 c 1332.2,0 2412.2,-1080 2412.2,-2412.2 v -5073.1 c 0,-1332.2 -1080,-2412.2 -2412.2,-2412.2"
         style="fill:#f14565;fill-opacity:1;fill-rule:nonzero;stroke:none"
         id="path16" /><path
         d="m 12745.9,2477 c -2071.2,0 -3750.19,235.3 -3750.19,525.5 0,290.2 1678.99,525.5 3750.19,525.5 2071.2,0 3750.3,-235.3 3750.3,-525.5 0,-290.2 -1679.1,-525.5 -3750.3,-525.5"
         style="fill:#fbc4d2;fill-opacity:1;fill-rule:nonzero;stroke:none"
         id="path18" /><path
         d="m 14408.7,14023.2 c 0,-1054.1 -854.5,-1908.7 -1908.7,-1908.7 -1054.2,0 -1908.7,854.6 -1908.7,1908.7 0,1054.2 854.5,1908.7 1908.7,1908.7 1054.2,0 1908.7,-854.5 1908.7,-1908.7"
         style="fill:#ffffff;fill-opacity:1;fill-rule:nonzero;stroke:none"
         id="path20" /><path
         d="m 15779.9,9803 c -185.3,1190.4 -1214.7,2101.4 -2457,2101.4 h -1645.8 c -1242.3,0 -2271.74,-911 -2456.96,-2101.4 h 6559.76"
         style="fill:#ffffff;fill-opacity:1;fill-rule:nonzero;stroke:none"
         id="path22" /></g></g></svg>
